<?xml version="1.0" encoding="UTF-8"?>
<svg width="167.53" height="56" viewBox="0 0 44.324 14.817" xmlns="http://www.w3.org/2000/svg">
  <path fill="#a6a6a6" d="M40.793 0H3.125l-.34.005a4.895 4.895 0 0 0-.743.066 2.469 2.469 0 0 0-.704.232 2.385 2.385 0 0 0-.6.437 2.318 2.318 0 0 0-.436.6 2.445 2.445 0 0 0-.232.705 4.813 4.813 0 0 0-.066.742C0 2.9 0 3.014-.002 3.127v8.563c.002.115.002.226.006.341a4.812 4.812 0 0 0 .066.742 2.44 2.44 0 0 0 .232.705 2.3 2.3 0 0 0 .436.598 2.324 2.324 0 0 0 .6.436 2.482 2.482 0 0 0 .704.234 4.984 4.984 0 0 0 .742.066c.115.002.227.004.34.004h38.071c.113 0 .228-.002.341-.004a4.919 4.919 0 0 0 .741-.066 2.52 2.52 0 0 0 .707-.234 2.325 2.325 0 0 0 .599-.436 2.369 2.369 0 0 0 .438-.598 2.446 2.446 0 0 0 .229-.705 5.003 5.003 0 0 0 .069-.742l.001-.341c.003-.135.003-.269.003-.406V3.532c0-.136 0-.27-.003-.404l-.001-.341a5.003 5.003 0 0 0-.07-.742 2.451 2.451 0 0 0-.228-.705A2.395 2.395 0 0 0 42.984.303a2.507 2.507 0 0 0-.707-.232 4.832 4.832 0 0 0-.74-.066L41.194 0h-.402z" />
  <path fill="#000000" d="M3.128 14.492c-.113 0-.223-.001-.335-.004a4.7 4.7 0 0 1-.692-.06 2.18 2.18 0 0 1-.614-.203 2.002 2.002 0 0 1-.517-.377 1.97 1.97 0 0 1-.378-.517 2.12 2.12 0 0 1-.202-.614 4.598 4.598 0 0 1-.061-.694c-.003-.078-.006-.338-.006-.338V3.128l.006-.332a4.582 4.582 0 0 1 .061-.693 2.132 2.132 0 0 1 .201-.616A1.99 1.99 0 0 1 .967.97a2.061 2.061 0 0 1 .52-.378 2.157 2.157 0 0 1 .612-.202 4.662 4.662 0 0 1 .695-.06l.334-.005h38.067l.338.005a4.588 4.588 0 0 1 .689.06 2.2 2.2 0 0 1 .619.203 2.072 2.072 0 0 1 .894.896 2.135 2.135 0 0 1 .199.61 4.813 4.813 0 0 1 .064.7l.001.33c.003.139.003.27.003.404v7.752c0 .135 0 .266-.003.399l-.001.344a4.716 4.716 0 0 1-.064.687 2.126 2.126 0 0 1-.2.618 2.03 2.03 0 0 1-.376.513 2.005 2.005 0 0 1-.518.38 2.171 2.171 0 0 1-.618.203 4.646 4.646 0 0 1-.693.06c-.108.003-.222.004-.332.004h-.401z" />
  <path fill="#ffffff" d="M9.175 7.52a1.833 1.833 0 0 1 .873-1.538 1.876 1.876 0 0 0-1.479-.8c-.622-.065-1.225.373-1.542.373-.323 0-.81-.366-1.336-.355a1.969 1.969 0 0 0-1.657 1.01c-.717 1.24-.182 3.063.504 4.066.343.49.745 1.04 1.27 1.02.513-.022.705-.328 1.325-.328.615 0 .795.328 1.33.315.552-.009.9-.493 1.23-.988a4.06 4.06 0 0 0 .563-1.146 1.771 1.771 0 0 1-1.081-1.63zM8.163 4.523a1.805 1.805 0 0 0 .413-1.293 1.836 1.836 0 0 0-1.189.615 1.717 1.717 0 0 0-.423 1.245 1.518 1.518 0 0 0 1.199-.567z" />
  <path fill="#ffffff" d="M15.67 10.053h-1.754l-.421 1.243h-.743l1.66-4.6h.772l1.661 4.6h-.755zm-1.573-.574h1.39l-.685-2.017h-.02zM20.432 9.62c0 1.042-.558 1.711-1.4 1.711a1.137 1.137 0 0 1-1.055-.586h-.016v1.66h-.688V7.944h.666V8.5h.013a1.19 1.19 0 0 1 1.068-.593c.85 0 1.412.673 1.412 1.713zm-.708 0c0-.68-.35-1.126-.886-1.126-.526 0-.88.456-.88 1.126 0 .675.354 1.128.88 1.128.535 0 .886-.443.886-1.128zM24.123 9.62c0 1.042-.558 1.711-1.4 1.711a1.137 1.137 0 0 1-1.055-.586h-.016v1.66h-.688V7.944h.666V8.5h.013a1.19 1.19 0 0 1 1.068-.593c.85 0 1.412.673 1.412 1.713zm-.708 0c0-.68-.35-1.126-.886-1.126-.526 0-.88.456-.88 1.126 0 .675.354 1.128.88 1.128.536 0 .886-.443.886-1.128zM26.562 10.014c.051.457.494.756 1.1.756.58 0 .997-.3.997-.71 0-.358-.251-.572-.847-.718l-.597-.144c-.844-.204-1.236-.599-1.236-1.24 0-.793.691-1.338 1.673-1.338.972 0 1.639.545 1.661 1.338h-.695c-.041-.459-.42-.736-.975-.736s-.934.28-.934.689c0 .325.242.516.835.663l.507.124c.943.223 1.335.602 1.335 1.275 0 .86-.685 1.4-1.775 1.4-1.02 0-1.71-.527-1.754-1.359zM30.872 7.149v.794h.638v.545h-.638v1.848c0 .288.128.422.408.422a2.151 2.151 0 0 0 .227-.016v.541a1.89 1.89 0 0 1-.383.032c-.679 0-.943-.255-.943-.905V8.488h-.488v-.545h.488v-.794zM31.88 9.62c0-1.056.62-1.719 1.59-1.719.972 0 1.59.663 1.59 1.719 0 1.058-.615 1.718-1.59 1.718-.975 0-1.59-.66-1.59-1.718zm2.48 0c0-.724-.332-1.151-.89-1.151s-.89.43-.89 1.15c0 .727.332 1.151.89 1.151s.89-.424.89-1.15zM35.628 7.942h.657v.571h.016a.8.8 0 0 1 .806-.606 1.062 1.062 0 0 1 .236.026v.644a.962.962 0 0 0-.31-.042.694.694 0 0 0-.716.772v1.989h-.689zM40.515 10.311c-.092.609-.685 1.027-1.444 1.027-.975 0-1.58-.654-1.58-1.703 0-1.051.608-1.734 1.551-1.734.928 0 1.512.638 1.512 1.654v.236h-2.369v.042a.873.873 0 0 0 .902.95.759.759 0 0 0 .775-.472zm-2.327-1h1.677a.806.806 0 0 0-.822-.852.849.849 0 0 0-.855.851z" />
  <path id="info" fill="#ffffff" d="M14.011 3.234a.978.978 0 0 1 1.04 1.098c0 .706-.382 1.112-1.04 1.112h-.798v-2.21zm-.455 1.898h.417a.695.695 0 0 0 .729-.795.697.697 0 0 0-.73-.79h-.416zM15.44 4.61a.79.79 0 1 1 1.572 0 .79.79 0 1 1-1.573 0zm1.234 0c0-.362-.163-.574-.448-.574-.286 0-.447.212-.447.573 0 .365.161.575.447.575.285 0 .448-.212.448-.575zM19.103 5.444h-.341l-.345-1.228h-.026l-.343 1.228h-.339l-.46-1.668h.335l.298 1.273h.025l.343-1.273h.316l.343 1.273h.026l.297-1.273h.33zM19.948 3.776h.317v.265h.025a.5.5 0 0 1 .497-.297.543.543 0 0 1 .578.62v1.08h-.33v-.997c0-.268-.116-.401-.36-.401a.383.383 0 0 0-.398.423v.975h-.329zM21.889 3.125h.33v2.32h-.33zM22.676 4.61a.79.79 0 1 1 1.573 0 .79.79 0 1 1-1.573 0zm1.234 0c0-.362-.162-.574-.447-.574-.286 0-.447.212-.447.573 0 .365.16.575.447.575.285 0 .447-.212.447-.575zM24.596 4.972c0-.3.223-.473.62-.498l.452-.026v-.144c0-.176-.117-.275-.342-.275-.183 0-.31.067-.347.185h-.319c.034-.286.303-.47.681-.47.419 0 .654.208.654.56v1.14h-.316V5.21h-.026a.561.561 0 0 1-.501.262.504.504 0 0 1-.556-.5zm1.072-.142v-.14l-.408.026c-.23.016-.333.094-.333.241 0 .15.13.237.309.237a.393.393 0 0 0 .432-.364zM26.428 4.61c0-.528.27-.862.692-.862a.55.55 0 0 1 .512.293h.024v-.916h.33v2.32h-.316V5.18h-.026a.579.579 0 0 1-.524.29c-.424 0-.692-.333-.692-.862zm.34 0c0 .353.167.566.446.566.277 0 .449-.216.449-.565 0-.348-.174-.567-.45-.567s-.445.214-.445.565zM29.348 4.61a.79.79 0 1 1 1.573 0 .79.79 0 1 1-1.573 0zm1.234 0c0-.362-.162-.574-.447-.574-.286 0-.447.212-.447.573 0 .365.16.575.447.575.285 0 .447-.212.447-.575zM31.362 3.776h.317v.265h.025a.5.5 0 0 1 .497-.297.543.543 0 0 1 .578.62v1.08h-.33v-.997c0-.268-.116-.401-.36-.401a.383.383 0 0 0-.398.423v.975h-.329zM34.639 3.361v.423H35v.277h-.361v.858c0 .174.072.251.236.251A1.099 1.099 0 0 0 35 5.162v.275a1.08 1.08 0 0 1-.179.016c-.366 0-.512-.128-.512-.45v-.942h-.264v-.277h.264V3.36zM35.45 3.125h.326v.92h.026a.513.513 0 0 1 .509-.3.55.55 0 0 1 .574.622v1.077h-.33v-.996c0-.266-.123-.4-.356-.4a.39.39 0 0 0-.42.422v.974h-.329zM38.804 4.994a.677.677 0 0 1-.723.482.758.758 0 0 1-.77-.86.77.77 0 0 1 .769-.872c.464 0 .744.317.744.84V4.7h-1.178v.018a.44.44 0 0 0 .444.478.4.4 0 0 0 .397-.202zm-1.158-.538h.843a.402.402 0 0 0-.41-.432.427.427 0 0 0-.433.432z" />
</svg>