<?xml version="1.0" encoding="UTF-8"?>
<svg width="189" height="56" version="1.1" viewBox="0 0 50.006 14.817" xmlns="http://www.w3.org/2000/svg">
 <defs>
  <clipPath id="clipPath56-8">
   <path d="m205.1 176.1-0.743 0.711c-2.91 3.079-4.628 7.86-4.628 14.051v-1.457 221.21-1.516c0 6.704 2.003 11.754 5.359 14.782l123.9-123.9-123.89-123.89m-5.371 234.53c0 0.551 0.015 1.086 0.043 1.613-0.028-0.523-0.043-1.062-0.043-1.613m0.043 1.637c0 7e-3 0 0.015 3e-3 0.023-3e-3 -8e-3 -3e-3 -0.016-3e-3 -0.023m3e-3 0.07v0.012-0.012"/>
  </clipPath>
  <linearGradient id="linearGradient70-4" x2="1" gradientTransform="matrix(-167.82,-167.82,167.82,-167.82,318,412.9)" gradientUnits="userSpaceOnUse">
   <stop stop-color="#00a0ff" offset="0"/>
   <stop stop-color="#00a1ff" offset=".0065744"/>
   <stop stop-color="#00beff" offset=".2601"/>
   <stop stop-color="#00d2ff" offset=".5122"/>
   <stop stop-color="#00dfff" offset=".7604"/>
   <stop stop-color="#00e3ff" offset="1"/>
  </linearGradient>
  <clipPath id="clipPath80-8">
   <path d="m370.28 257.22 0.942 0.535 48.929 27.801c4.665 2.652 7.774 5.867 9.325 9.269-1.547-3.402-4.657-6.621-9.325-9.273l-48.929-27.801-0.942-0.531m0.012 1.465-41.305 41.312 41.301 41.305 49.863-28.328c6.332-3.598 9.887-8.235 10.481-12.973v-0.019c-0.594-4.727-4.149-9.368-10.481-12.965l-49.859-28.332"/>
  </clipPath>
  <linearGradient id="linearGradient90-0" x2="1" gradientTransform="matrix(-241.97,0,0,-241.97,438.34,299.99)" gradientUnits="userSpaceOnUse">
   <stop stop-color="#ffe000" offset="0"/>
   <stop stop-color="#ffbd00" offset=".4087"/>
   <stop stop-color="#ffa500" offset=".7754"/>
   <stop stop-color="#ff9c00" offset="1"/>
  </linearGradient>
  <clipPath id="clipPath100-4">
   <path d="m213.93 171.39c-3.461 0-6.481 1.125-8.836 3.25l4e-3 4e-3c2.355-2.125 5.379-3.254 8.84-3.254 0.3 0 0.605 8e-3 0.914 0.023-0.313-0.015-0.622-0.023-0.922-0.023m4e-3 1.465c-3.461-4e-3 -6.481 1.125-8.836 3.25v3e-3l123.89 123.89 41.305-41.312-145.15-82.473c-4.016-2.277-7.821-3.355-11.203-3.355m-8.871 1.812c-0.219 0.199-0.434 0.41-0.645 0.629l0.645-0.629"/>
  </clipPath>
  <linearGradient id="linearGradient106-6" x2="1" gradientTransform="matrix(-227.58,-227.58,227.58,-227.58,348.27,277.04)" gradientUnits="userSpaceOnUse">
   <stop stop-color="#ff3a44" offset="0"/>
   <stop stop-color="#c31162" offset="1"/>
  </linearGradient>
  <clipPath id="clipPath116-0">
   <path d="m328.98 299.99-123.9 123.9c2.355 2.121 5.371 3.246 8.828 3.246 3.391 0 7.199-1.082 11.223-3.363l145.15-82.473-41.301-41.305m42.235 42.238-146.08 83c-4.024 2.282-7.832 3.364-11.223 3.364h-0.043 0.059c3.383 0 7.187-1.078 11.207-3.36l146.08-83.004"/>
  </clipPath>
  <linearGradient id="linearGradient128-3" x2="1" gradientTransform="matrix(101.62,-101.62,101.62,101.62,172.97,498.24)" gradientUnits="userSpaceOnUse">
   <stop stop-color="#32a071" offset="0"/>
   <stop stop-color="#2da771" offset=".0685"/>
   <stop stop-color="#15cf74" offset=".4762"/>
   <stop stop-color="#06e775" offset=".8009"/>
   <stop stop-color="#00f076" offset="1"/>
  </linearGradient>
  <clipPath id="clipPath140-2">
   <path d="m370.28 257.22 0.942 0.535-0.942-0.535"/>
  </clipPath>
  <linearGradient id="linearGradient150-6" x2="1" gradientTransform="matrix(-241.97,0,0,-241.97,438.34,299.99)" gradientUnits="userSpaceOnUse">
   <stop stop-color="#ccb300" offset="0"/>
   <stop stop-color="#cc9700" offset=".4087"/>
   <stop stop-color="#cc8400" offset=".7754"/>
   <stop stop-color="#cc7d00" offset="1"/>
  </linearGradient>
  <clipPath id="clipPath160-9">
   <path d="m213.94 171.39c-3.461 0-6.485 1.129-8.84 3.254l-4e-3 -4e-3c-8e-3 8e-3 -0.02 0.019-0.031 0.027l-0.645 0.629c-0.02 0.02-0.039 0.043-0.063 0.066l0.743 0.743c2.355-2.125 5.375-3.254 8.836-3.25 3.382 0 7.187 1.078 11.203 3.355l145.15 82.473 0.93-0.93-0.942-0.535-145.14-82.469c-3.66-2.074-7.141-3.156-10.285-3.336-0.309-0.015-0.614-0.023-0.914-0.023"/>
  </clipPath>
  <linearGradient id="linearGradient166-4" x2="1" gradientTransform="matrix(-227.58,-227.58,227.58,-227.58,348.27,277.04)" gradientUnits="userSpaceOnUse">
   <stop stop-color="#cc2e36" offset="0"/>
   <stop stop-color="#9c0e4e" offset="1"/>
  </linearGradient>
  <clipPath id="clipPath178-1">
   <path d="m204.36 175.36c-2.91 3.079-4.628 7.856-4.628 14.051v1.457c0-6.191 1.718-10.972 4.628-14.051l0.743-0.711-0.743-0.746"/>
  </clipPath>
  <linearGradient id="linearGradient192-3" x2="1" gradientTransform="matrix(-167.82,-167.82,167.82,-167.82,318,412.9)" gradientUnits="userSpaceOnUse">
   <stop stop-color="#008de0" offset="0"/>
   <stop stop-color="#008de0" offset=".0065744"/>
   <stop stop-color="#00a7e0" offset=".2601"/>
   <stop stop-color="#00b8e0" offset=".5122"/>
   <stop stop-color="#00c4e0" offset=".7604"/>
   <stop stop-color="#00c7e0" offset="1"/>
  </linearGradient>
  <clipPath id="clipPath202-7">
   <path d="m204.36 175.36 0.743 0.746v-3e-3l-0.743-0.743"/>
  </clipPath>
  <linearGradient id="linearGradient208-8" x2="1" gradientTransform="matrix(-227.58,-227.58,227.58,-227.58,348.27,277.04)" gradientUnits="userSpaceOnUse">
   <stop stop-color="#e0333c" offset="0"/>
   <stop stop-color="#ab0f56" offset="1"/>
  </linearGradient>
  <clipPath id="clipPath220-8">
   <path d="m371.22 257.75-0.93 0.93 49.859 28.332c6.332 3.597 9.887 8.238 10.481 12.965 0-1.735-0.387-3.469-1.156-5.157-1.551-3.402-4.66-6.617-9.325-9.269l-48.929-27.801"/>
  </clipPath>
  <linearGradient id="linearGradient230-3" x2="1" gradientTransform="matrix(-241.97,0,0,-241.97,438.34,299.99)" gradientUnits="userSpaceOnUse">
   <stop stop-color="#e0c500" offset="0"/>
   <stop stop-color="#e0a600" offset=".4087"/>
   <stop stop-color="#e09100" offset=".7754"/>
   <stop stop-color="#e08900" offset="1"/>
  </linearGradient>
  <clipPath id="clipPath242-8">
   <path d="m430.63 300c-0.594 4.738-4.149 9.375-10.481 12.973l-49.863 28.328 0.93 0.93h4e-3l48.929-27.801c6.981-3.969 10.477-9.199 10.481-14.43"/>
  </clipPath>
  <linearGradient id="linearGradient252-1" x2="1" gradientTransform="matrix(-241.97,0,0,-241.97,438.34,299.99)" gradientUnits="userSpaceOnUse">
   <stop stop-color="#ffe840" offset="0"/>
   <stop stop-color="#ffce40" offset=".4087"/>
   <stop stop-color="#ffbc40" offset=".7754"/>
   <stop stop-color="#ffb540" offset="1"/>
  </linearGradient>
  <clipPath id="clipPath264-5">
   <path d="m199.73 409.1v1.528c0 0.551 0.015 1.09 0.043 1.613v0.024c0 7e-3 0 0.015 3e-3 0.023v0.059c0.301 5.332 1.957 9.492 4.582 12.269l0.731-0.734c-3.356-3.028-5.359-8.078-5.359-14.782m5.339 16.215 0.028 0.028c-8e-3 -0.012-0.02-0.02-0.028-0.028"/>
  </clipPath>
  <linearGradient id="linearGradient278-3" x2="1" gradientTransform="matrix(-167.82,-167.82,167.82,-167.82,318,412.9)" gradientUnits="userSpaceOnUse">
   <stop stop-color="#40b8ff" offset="0"/>
   <stop stop-color="#40b9ff" offset=".0065744"/>
   <stop stop-color="#40ceff" offset=".2601"/>
   <stop stop-color="#40ddff" offset=".5122"/>
   <stop stop-color="#40e7ff" offset=".7604"/>
   <stop stop-color="#40eaff" offset="1"/>
  </linearGradient>
  <clipPath id="clipPath290-5">
   <path d="m370.28 341.3-145.15 82.473c-4.024 2.281-7.832 3.363-11.223 3.363-3.457 0-6.473-1.125-8.828-3.246l-0.731 0.734c0.231 0.242 0.465 0.477 0.711 0.699 8e-3 8e-3 0.02 0.016 0.028 0.024 2.336 2.105 5.32 3.23 8.746 3.25h0.074c3.391 0 7.199-1.082 11.223-3.364l146.08-83-4e-3 -3e-3 -0.93-0.93"/>
  </clipPath>
  <linearGradient id="linearGradient302-4" x2="1" gradientTransform="matrix(101.62,-101.62,101.62,101.62,172.97,498.24)" gradientUnits="userSpaceOnUse">
   <stop stop-color="#65b895" offset="0"/>
   <stop stop-color="#62bd95" offset=".0685"/>
   <stop stop-color="#50db97" offset=".4762"/>
   <stop stop-color="#44ed98" offset=".8009"/>
   <stop stop-color="#40f498" offset="1"/>
  </linearGradient>
 </defs>
 <path d="m48.154 14.816h-46.302c-1.0187 0-1.8521-0.83341-1.8521-1.852v-11.112c0-1.0186 0.83344-1.852 1.8521-1.852h46.302c1.0187 0 1.8521 0.83341 1.8521 1.852v11.112c0 1.0186-0.83344 1.852-1.8521 1.852" stroke-width=".99997"/>
 <path d="m48.154 8.3756e-4h-46.302c-1.0187 0-1.8521 0.83341-1.8521 1.852v11.112c0 1.0186 0.83344 1.852 1.8521 1.852h46.302c1.0187 0 1.8521-0.83341 1.8521-1.852v-11.112c0-1.0186-0.83344-1.852-1.8521-1.852m0 0.29632c0.85789 0 1.5558 0.698 1.5558 1.5557v11.112c0 0.85787-0.69787 1.5558-1.5558 1.5558h-46.302c-0.85774 0-1.5558-0.69799-1.5558-1.5558v-11.112c0-0.85771 0.69803-1.5557 1.5558-1.5557h46.302" fill="#a6a6a6" stroke-width=".80002"/>
 <path id="info" d="M99.855 9.453c-1.208.027-2.24.469-3.06 1.315-.85.873-1.282 1.954-1.278 3.212 0 1.26.427 2.344 1.278 3.213v.004c.846.87 1.919 1.315 3.173 1.31 1.263 0 2.335-.437 3.182-1.314.85-.869 1.281-1.954 1.277-3.213 0-1.25-.427-2.328-1.281-3.205a4.26 4.26 0 0 0-3.174-1.322h-.117zm-37.598.006c-1.247 0-2.32.435-3.19 1.3a4.365 4.365 0 0 0-1.316 3.23c0 1.273.44 2.36 1.317 3.222.869.87 1.942 1.305 3.189 1.305 1.296 0 2.37-.431 3.186-1.286l-.002-.001c.724-.726 1.084-1.7 1.084-2.9h-.141a3.59 3.59 0 0 0 0-.005h.14a3.73 3.73 0 0 0-.06-.658l-.02-.113h-4.328v1.285h3.037a2.506 2.506 0 0 1-.652 1.467 3.042 3.042 0 0 1-2.244.896 3.05 3.05 0 0 1-2.2-.892 3.073 3.073 0 0 1-.921-2.32c0-.964.306-1.728.922-2.325a3.05 3.05 0 0 1 2.199-.892c.945 0 1.662.317 2.191.945l.1.12.846-.85.09-.09-.082-.098a3.594 3.594 0 0 0-1.37-.977 4.471 4.471 0 0 0-1.775-.363zm5.53.205v8.682h5.185v-1.313h-3.824v-2.385h3.449V13.36h-3.45v-2.38h3.825V9.663h-5.186zm6.038.012v1.31h2.344v7.371h1.362V10.99h2.341V9.676h-6.047zm12.39 0v1.31h2.343v7.371h1.362V10.99h2.341V9.676h-6.047zm-2.442.004v8.677H85.134V9.68h-1.361zm21.891 0v8.677H107.021v-5.375l-.033-1.181 4.084 6.556h1.346V9.68h-1.36v5.056l.036 1.182-3.899-6.238h-1.53zm-5.691 1.088c.869 0 1.584.295 2.181.9s.89 1.364.89 2.312-.293 1.708-.89 2.313a2.94 2.94 0 0 1-2.181.904 2.944 2.944 0 0 1-2.184-.904 3.148 3.148 0 0 1-.893-2.313c0-.944.303-1.707.893-2.312a2.944 2.944 0 0 1 2.184-.9z" fill="#fff" transform="scale(.26459)" />
 <path d="m39.611 11.11h0.6912v-4.6305h-0.6912zm6.2256-2.9625-0.79233 2.0075h-0.02371l-0.82234-2.0075h-0.74454l1.2331 2.8059-0.70306 1.5608h0.72121l1.9003-4.3667zm-3.9198 2.4366c-0.2267 0-0.5423-0.11316-0.5423-0.39326 0-0.3574 0.39339-0.49442 0.73269-0.49442 0.30411 0 0.44673 0.065518 0.63157 0.15499-0.05371 0.42885-0.42302 0.73269-0.82196 0.73269zm0.08335-2.5379c-0.50043 0-1.0187 0.2205-1.2331 0.70899l0.61342 0.2561c0.13112-0.2561 0.37523-0.33958 0.63157-0.33958 0.35746 0 0.72083 0.21457 0.72676 0.59584v0.047564c-0.1252-0.071503-0.39302-0.17868-0.72084-0.17868-0.6612 0-1.3347 0.36329-1.3347 1.0425 0 0.61958 0.5423 1.0188 1.1498 1.0188 0.46488 0 0.72083-0.2085 0.88197-0.45272h0.02371v0.35737h0.66712v-1.7754c0-0.82197-0.61342-1.2808-1.4058-1.2808zm-4.2716 0.66499h-0.9831v-1.5872h0.98309c0.51673 0 0.8101 0.42781 0.8101 0.79359 0 0.35885-0.29337 0.79363-0.8101 0.79363zm-0.017776-2.2317h-1.6562v4.6305h0.69083v-1.7544h0.96532c0.76602 0 1.519-0.5546 1.519-1.4381 0-0.88345-0.75307-1.438-1.519-1.438zm-9.0312 4.1054c-0.47751 0-0.8773-0.39979-0.8773-0.94887 0-0.55488 0.39979-0.96072 0.8773-0.96072 0.47143 0 0.84141 0.40584 0.84141 0.96072 0 0.54908-0.36998 0.94887-0.84141 0.94887zm0.79366-2.1782h-0.02389c-0.1551-0.18494-0.45361-0.35203-0.82952-0.35203-0.78774 0-1.5098 0.69218-1.5098 1.5813 0 0.88319 0.72203 1.5695 1.5098 1.5695 0.3759 0 0.67442-0.16712 0.82952-0.35796h0.02389v0.22672c0 0.6028-0.32223 0.92501-0.84142 0.92501-0.42369 0-0.68628-0.30444-0.79381-0.56098l-0.60263 0.25062c0.17306 0.41771 0.6326 0.93094 1.3964 0.93094 0.81159 0 1.4978-0.4775 1.4978-1.6411v-2.8285h-0.65646zm1.1338 2.7032h0.69224v-4.6307h-0.69224zm1.7128-1.5276c-0.01792-0.60873 0.47143-0.91894 0.82348-0.91894 0.2747 0 0.50732 0.13716 0.58475 0.33426zm2.1483-0.52509c-0.13112-0.35218-0.53118-1.0025-1.3487-1.0025-0.81159 0-1.4859 0.63851-1.4859 1.5754 0 0.88319 0.66835 1.5754 1.5635 1.5754 0.72221 0 1.14-0.4416 1.313-0.69814l-0.53711-0.3581c-0.17891 0.26262-0.42376 0.43567-0.77592 0.43567-0.35205 0-0.60263-0.16117-0.76384-0.47735l2.1065-0.87131zm-16.783-0.51916v0.66832h1.5993c-0.04774 0.37593-0.17306 0.6504-0.36405 0.84138-0.23266 0.2328-0.59671 0.48934-1.2352 0.48934-0.98469 0-1.7545-0.79363-1.7545-1.7782 0-0.98462 0.76977-1.7783 1.7545-1.7783 0.53115 0 0.91894 0.2089 1.2054 0.47745l0.47143-0.47138c-0.39979-0.382-0.93098-0.67439-1.6769-0.67439-1.3487 0-2.4825 1.0981-2.4825 2.4466 0 1.3487 1.1338 2.4465 2.4825 2.4465 0.7281 0 1.277-0.23857 1.7067-0.68625 0.44161-0.4416 0.57893-1.0621 0.57893-1.5634 0-0.15528-0.0119-0.29836-0.0359-0.41774zm4.1039 2.0468c-0.47751 0-0.88931-0.39385-0.88931-0.9548 0-0.56691 0.41179-0.95479 0.88931-0.95479 0.47732 0 0.88912 0.38788 0.88912 0.95479 0 0.56095-0.41179 0.9548-0.88912 0.9548zm0-2.5302c-0.87138 0-1.5815 0.66236-1.5815 1.5754 0 0.90705 0.71016 1.5754 1.5815 1.5754 0.87119 0 1.5813-0.66833 1.5813-1.5754 0-0.91301-0.71016-1.5754-1.5813-1.5754zm3.4498 2.5302c-0.47732 0-0.88916-0.39385-0.88916-0.9548 0-0.56691 0.41184-0.95479 0.88916-0.95479 0.47736 0 0.88916 0.38788 0.88916 0.95479 0 0.56095-0.41179 0.9548-0.88916 0.9548zm0-2.5302c-0.87134 0-1.5813 0.66236-1.5813 1.5754 0 0.90705 0.71002 1.5754 1.5813 1.5754 0.87122 0 1.5814-0.66833 1.5814-1.5754 0-0.91301-0.71017-1.5754-1.5814-1.5754" fill="#fff" stroke-width=".99997"/>
 <g transform="matrix(1.05 0 0 1.05 -33.68 -124.41)" stroke-width=".95236">
  <g transform="matrix(.035278 0 0 -.035278 28.547 136.13)">
   <g clip-path="url(#clipPath56-8)" stroke-width=".95236">
    <path d="m205.1 176.1-0.743 0.711c-2.91 3.079-4.628 7.86-4.628 14.051v-1.457 221.21-1.516c0 6.704 2.003 11.754 5.359 14.782l123.9-123.9-123.89-123.89m-5.371 234.53c0 0.551 0.015 1.086 0.043 1.613-0.028-0.523-0.043-1.062-0.043-1.613m0.043 1.637c0 7e-3 0 0.015 3e-3 0.023-3e-3 -8e-3 -3e-3 -0.016-3e-3 -0.023m3e-3 0.07v0.012-0.012" fill="url(#linearGradient70-4)" stroke-width=".76193"/>
   </g>
  </g>
  <g transform="matrix(.035278 0 0 -.035278 28.547 136.13)">
   <g clip-path="url(#clipPath80-8)" stroke-width=".95236">
    <path d="m370.28 257.22 0.942 0.535 48.929 27.801c4.665 2.652 7.774 5.867 9.325 9.269-1.547-3.402-4.657-6.621-9.325-9.273l-48.929-27.801-0.942-0.531m0.012 1.465-41.305 41.312 41.301 41.305 49.863-28.328c6.332-3.598 9.887-8.235 10.481-12.973v-0.019c-0.594-4.727-4.149-9.368-10.481-12.965l-49.859-28.332" fill="url(#linearGradient90-0)" stroke-width=".76193"/>
   </g>
  </g>
  <g transform="matrix(.035278 0 0 -.035278 28.547 136.13)">
   <g clip-path="url(#clipPath100-4)" stroke-width=".95236">
    <path d="m213.93 171.39c-3.461 0-6.481 1.125-8.836 3.25l4e-3 4e-3c2.355-2.125 5.379-3.254 8.84-3.254 0.3 0 0.605 8e-3 0.914 0.023-0.313-0.015-0.622-0.023-0.922-0.023m4e-3 1.465c-3.461-4e-3 -6.481 1.125-8.836 3.25v3e-3l123.89 123.89 41.305-41.312-145.15-82.473c-4.016-2.277-7.821-3.355-11.203-3.355m-8.871 1.812c-0.219 0.199-0.434 0.41-0.645 0.629l0.645-0.629" fill="url(#linearGradient106-6)" stroke-width=".76193"/>
   </g>
  </g>
  <g transform="matrix(.035278 0 0 -.035278 28.547 136.13)">
   <g clip-path="url(#clipPath116-0)" stroke-width=".95236">
    <path d="m328.98 299.99-123.9 123.9c2.355 2.121 5.371 3.246 8.828 3.246 3.391 0 7.199-1.082 11.223-3.363l145.15-82.473-41.301-41.305m42.235 42.238-146.08 83c-4.024 2.282-7.832 3.364-11.223 3.364h-0.043 0.059c3.383 0 7.187-1.078 11.207-3.36l146.08-83.004" fill="url(#linearGradient128-3)" stroke-width=".76193"/>
   </g>
  </g>
  <path d="m36.127 130.08c0.11091-6e-3 0.23372-0.0445 0.36283-0.11769l5.1202-2.9093-5.1202 2.9093c-0.12901 0.0733-0.25192 0.11134-0.36283 0.11769m-0.34424-0.11385-0.0011-9.5e-4c3.88e-4 2.8e-4 8.12e-4 6.7e-4 0.0011 9.5e-4m-0.02385-0.0231-0.0022-2e-3v-1.4e-4c8.46e-4 8.2e-4 0.0015 2e-3 0.0022 2e-3"/>
  <g transform="matrix(.035278 0 0 -.035278 28.547 136.13)">
   <g clip-path="url(#clipPath140-2)" stroke-width=".95236">
    <path d="m370.28 257.22 0.942 0.535-0.942-0.535" fill="url(#linearGradient150-6)" stroke-width=".76193"/>
   </g>
  </g>
  <g transform="matrix(.035278 0 0 -.035278 28.547 136.13)">
   <g clip-path="url(#clipPath160-9)" stroke-width=".95236">
    <path d="m213.94 171.39c-3.461 0-6.485 1.129-8.84 3.254l-4e-3 -4e-3c-8e-3 8e-3 -0.02 0.019-0.031 0.027l-0.645 0.629c-0.02 0.02-0.039 0.043-0.063 0.066l0.743 0.743c2.355-2.125 5.375-3.254 8.836-3.25 3.382 0 7.187 1.078 11.203 3.355l145.15 82.473 0.93-0.93-0.942-0.535-145.14-82.469c-3.66-2.074-7.141-3.156-10.285-3.336-0.309-0.015-0.614-0.023-0.914-0.023" fill="url(#linearGradient166-4)" stroke-width=".76193"/>
   </g>
  </g>
  <path d="m35.757 129.94c-0.10266-0.10862-0.16327-0.27728-0.16327-0.49568v-1.4e-4c0 0.21854 0.06061 0.38706 0.16327 0.49568v1.4e-4"/>
  <g transform="matrix(.035278 0 0 -.035278 28.547 136.13)">
   <g clip-path="url(#clipPath178-1)" stroke-width=".95236">
    <path d="m204.36 175.36c-2.91 3.079-4.628 7.856-4.628 14.051v1.457c0-6.191 1.718-10.972 4.628-14.051l0.743-0.711-0.743-0.746" fill="url(#linearGradient192-3)" stroke-width=".76193"/>
   </g>
  </g>
  <g transform="matrix(.035278 0 0 -.035278 28.547 136.13)">
   <g clip-path="url(#clipPath202-7)" stroke-width=".95236">
    <path d="m204.36 175.36 0.743 0.746v-3e-3l-0.743-0.743" fill="url(#linearGradient208-8)" stroke-width=".76193"/>
   </g>
  </g>
  <path d="m43.698 125.73c0.02713-0.0595 0.04078-0.12072 0.04078-0.18192v-2.5e-4c0 0.0613-0.01365 0.12248-0.04078 0.18217"/>
  <g transform="matrix(.035278 0 0 -.035278 28.547 136.13)">
   <g clip-path="url(#clipPath220-8)" stroke-width=".95236">
    <path d="m371.22 257.75-0.93 0.93 49.859 28.332c6.332 3.597 9.887 8.238 10.481 12.965 0-1.735-0.387-3.469-1.156-5.157-1.551-3.402-4.66-6.617-9.325-9.269l-48.929-27.801" fill="url(#linearGradient230-3)" stroke-width=".76193"/>
   </g>
  </g>
 </g>
 <path d="m12.247 7.4031v-1.47e-4c-1.48e-4 -0.19376-0.12964-0.38748-0.38824-0.5345l-1.8124-1.0298h-1.48e-4l1.48e-4 -1.05e-4 1.8124 1.0297c0.25889 0.14702 0.38854 0.34103 0.38824 0.53479" fill="#404040" stroke-width=".80002"/>
 <g transform="matrix(.037042 0 0 -.037041 -3.705 18.522)" stroke-width=".95236">
  <g clip-path="url(#clipPath242-8)" stroke-width=".95236">
   <path d="m430.63 300c-0.594 4.738-4.149 9.375-10.481 12.973l-49.863 28.328 0.93 0.93h4e-3l48.929-27.801c6.981-3.969 10.477-9.199 10.481-14.43" fill="url(#linearGradient252-1)" stroke-width=".76193"/>
  </g>
 </g>
 <path d="m3.6933 3.3082v-4.409e-4 4.409e-4m0.00157-0.060163v-8.924e-4 8.924e-4m1.113e-4 -0.0021v-0.0021 0.0021m0-0.0021c0.021457-0.38052 0.22837-0.60032 0.52107-0.60161-0.1269 7.35e-4 -0.23744 0.042419-0.32397 0.12038v-1.47e-4l-0.00104 0.00103c-0.00914 0.0084-0.017777 0.016904-0.026334 0.025934-0.097231 0.1029-0.15857 0.25696-0.16972 0.45446" fill="#404040" stroke-width=".80002"/>
 <g transform="matrix(.037042 0 0 -.037041 -3.705 18.522)" stroke-width=".95236">
  <g clip-path="url(#clipPath264-5)" stroke-width=".95236">
   <path d="m199.73 409.1v1.528c0 0.551 0.015 1.09 0.043 1.613v0.024c0 7e-3 0 0.015 3e-3 0.023v0.059c0.301 5.332 1.957 9.492 4.582 12.269l0.731-0.734c-3.356-3.028-5.359-8.078-5.359-14.782m5.339 16.215 0.028 0.028c-8e-3 -0.012-0.02-0.02-0.028-0.028" fill="url(#linearGradient278-3)" stroke-width=".76193"/>
  </g>
 </g>
 <path d="m4.2163 2.6468h0.00116-0.00116" fill="#404040" stroke-width=".80002"/>
 <g transform="matrix(.037042 0 0 -.037041 -3.705 18.522)" stroke-width=".95236">
  <g clip-path="url(#clipPath290-5)" stroke-width=".95236">
   <path d="m370.28 341.3-145.15 82.473c-4.024 2.281-7.832 3.363-11.223 3.363-3.457 0-6.473-1.125-8.828-3.246l-0.731 0.734c0.231 0.242 0.465 0.477 0.711 0.699 8e-3 8e-3 0.02 0.016 0.028 0.024 2.336 2.105 5.32 3.23 8.746 3.25h0.074c3.391 0 7.199-1.082 11.223-3.364l146.08-83-4e-3 -3e-3 -0.93-0.93" fill="url(#linearGradient302-4)" stroke-width=".76193"/>
  </g>
 </g>
</svg>